# Blender 4.4.3
# www.blender.org
mtllib CornerWall.mtl
o Cube
v 2.000000 0.983525 -2.000000
v 2.000000 -0.016475 -2.000000
v 2.000000 0.983525 2.000000
v 2.000000 -0.016475 2.000000
v -2.000000 0.983525 -2.000000
v -2.000000 -0.016475 -2.000000
v -1.717975 0.980072 1.752899
v -1.717975 -0.019928 1.752899
v -2.000000 -0.016475 0.000000
v 2.000000 0.983525 0.000000
v -2.000000 0.983525 0.000000
v 2.000000 -0.016475 0.000000
v -2.000000 -0.016475 1.000000
v 2.000000 0.983525 1.000000
v -2.000000 0.983525 1.000000
v 2.000000 -0.016475 1.000000
v -2.000000 0.983525 -1.000000
v 2.000000 -0.016475 -1.000000
v -2.000000 -0.016475 -1.000000
v 2.000000 0.983525 -1.000000
v 0.000000 -0.016475 -2.000000
v 0.000000 0.983525 2.000000
v 0.000000 -0.016475 2.000000
v 0.000000 0.983525 -2.000000
v 0.000000 -0.016475 0.000000
v 0.000000 0.983525 0.000000
v 0.000000 -0.016475 1.000000
v 0.000000 0.983525 1.000000
v 0.000000 0.983525 -1.000000
v 0.000000 -0.016475 -1.000000
v -1.000000 -0.016475 -2.000000
v -1.000000 0.983525 2.000000
v -1.000000 -0.016475 0.000000
v -1.000000 -0.016475 1.000000
v -1.000000 -0.016475 -1.000000
v -1.000000 -0.016475 2.000000
v -1.000000 0.983525 -2.000000
v -1.000000 0.983525 0.000000
v -1.000000 0.983525 1.000000
v -1.000000 0.983525 -1.000000
v 1.000000 -0.016475 2.000000
v 1.000000 0.983525 -2.000000
v 1.000000 0.983525 0.000000
v 1.000000 0.983525 1.000000
v 1.000000 0.983525 -1.000000
v 1.000000 -0.016475 -2.000000
v 1.000000 0.983525 2.000000
v 1.000000 -0.016475 0.000000
v 1.000000 -0.016475 1.000000
v 1.000000 -0.016475 -1.000000
v -1.000000 5.726810 2.000000
v -1.717975 5.723357 1.752899
v 2.000000 5.726810 1.000000
v 2.000000 5.726810 2.000000
v -2.000000 5.726810 -1.000000
v -2.000000 5.726810 -2.000000
v -2.000000 5.726810 1.000000
v -2.000000 5.726810 0.000000
v 1.000000 5.726810 1.000000
v 1.000000 5.726810 2.000000
v 0.000000 5.726810 2.000000
v -1.000000 5.726810 1.000000
v 0.000000 5.726810 1.000000
v -1.000000 5.726810 -2.000000
v -1.000000 5.726810 0.000000
v -1.000000 5.726810 -1.000000
vn -1.0000 -0.0000 -0.0000
vn -0.3254 -0.0000 0.9456
vn -0.0000 -1.0000 -0.0000
vn 1.0000 -0.0000 -0.0000
vn -0.0000 -0.0000 -1.0000
vn -0.9365 -0.0000 0.3508
vn -0.0000 -0.0000 1.0000
vn -0.0000 1.0000 -0.0000
vn 0.0023 -1.0000 -0.0023
vn -0.0023 1.0000 0.0023
vt 0.625000 0.187500
vt 0.625000 0.125000
vt 0.375000 0.937500
vt 0.625000 0.937500
vt 0.625000 1.000000
vt 0.375000 1.000000
vt 0.375000 0.187500
vt 0.625000 0.250000
vt 0.375000 0.250000
vt 0.312500 0.687500
vt 0.375000 0.687500
vt 0.375000 0.750000
vt 0.312500 0.750000
vt 0.625000 0.687500
vt 0.625000 0.750000
vt 0.375000 0.437500
vt 0.625000 0.437500
vt 0.625000 0.500000
vt 0.375000 0.500000
vt 0.375000 0.562500
vt 0.625000 0.562500
vt 0.625000 0.625000
vt 0.375000 0.625000
vt 0.312500 0.562500
vt 0.312500 0.625000
vt 0.375000 0.062500
vt 0.625000 0.062500
vt 0.375000 0.125000
vt 0.812500 0.687500
vt 0.812500 0.625000
vt 0.375000 0.000000
vt 0.625000 0.000000
vt 0.625000 0.875000
vt 0.687500 0.687500
vt 0.750000 0.687500
vt 0.312500 0.500000
vt 0.187500 0.500000
vt 0.250000 0.500000
vt 0.250000 0.562500
vt 0.187500 0.562500
vt 0.687500 0.500000
vt 0.750000 0.500000
vt 0.750000 0.562500
vt 0.687500 0.562500
vt 0.687500 0.625000
vt 0.750000 0.625000
vt 0.187500 0.625000
vt 0.250000 0.625000
vt 0.250000 0.687500
vt 0.187500 0.687500
vt 0.375000 0.312500
vt 0.625000 0.312500
vt 0.625000 0.375000
vt 0.375000 0.375000
vt 0.250000 0.750000
vt 0.187500 0.750000
vt 0.375000 0.812500
vt 0.625000 0.812500
vt 0.375000 0.875000
vt 0.125000 0.687500
vt 0.125000 0.750000
vt 0.125000 0.562500
vt 0.125000 0.625000
vt 0.125000 0.500000
vt 0.812500 0.500000
vt 0.812500 0.562500
vt 0.875000 0.687500
vt 0.875000 0.750000
vt 0.812500 0.750000
vt 0.875000 0.562500
vt 0.875000 0.625000
vt 0.875000 0.500000
vt 0.750000 0.750000
vt 0.687500 0.750000
s 0
usemtl Material
f 36/3/2 32/4/2 7/5/2 8/6/2
f 19/7/1 17/1/1 5/8/1 6/9/1
f 49/10/3 16/11/3 4/12/3 41/13/3
f 16/11/4 14/14/4 3/15/4 4/12/4
f 46/16/5 42/17/5 1/18/5 2/19/5
f 18/20/4 20/21/4 10/22/4 12/23/4
f 50/24/3 18/20/3 12/23/3 48/25/3
f 13/26/1 15/27/1 11/2/1 9/28/1
f 8/31/6 7/32/6 15/27/6 13/26/6
f 12/23/4 10/22/4 14/14/4 16/11/4
f 48/25/3 12/23/3 16/11/3 49/10/3
f 46/36/3 2/19/3 18/20/3 50/24/3
f 2/19/4 1/18/4 20/21/4 18/20/4
f 9/28/1 11/2/1 17/1/1 19/7/1
f 31/37/3 21/38/3 30/39/3 35/40/3
f 42/41/8 24/42/8 29/43/8 45/44/8
f 43/45/8 26/46/8 28/35/8 44/34/8
f 33/47/3 25/48/3 27/49/3 34/50/3
f 45/44/8 29/43/8 26/46/8 43/45/8
f 35/40/3 30/39/3 25/48/3 33/47/3
f 31/51/5 37/52/5 24/53/5 21/54/5
f 34/50/3 27/49/3 23/55/3 36/56/3
f 41/57/7 47/58/7 22/33/7 23/59/7
f 13/60/9 34/50/9 36/56/9 8/61/9
f 6/9/5 5/8/5 37/52/5 31/51/5
f 19/62/3 35/40/3 33/47/3 9/63/3
f 9/63/3 33/47/3 34/50/3 13/60/3
f 6/64/3 31/37/3 35/40/3 19/62/3
f 24/42/8 37/65/8 40/66/8 29/43/8
f 26/46/8 38/30/8 39/29/8 28/35/8
f 29/43/8 40/66/8 38/30/8 26/46/8
f 23/59/7 22/33/7 32/4/7 36/3/7
f 4/12/7 3/15/7 47/58/7 41/57/7
f 20/21/8 45/44/8 43/45/8 10/22/8
f 10/22/8 43/45/8 44/34/8 14/14/8
f 1/18/8 42/41/8 45/44/8 20/21/8
f 21/38/3 46/36/3 50/24/3 30/39/3
f 25/48/3 48/25/3 49/10/3 27/49/3
f 30/39/3 50/24/3 48/25/3 25/48/3
f 21/54/5 24/53/5 42/17/5 46/16/5
f 27/49/3 49/10/3 41/13/3 23/55/3
usemtl wall
f 17/1/1 11/2/1 58/2/1 55/1/1
f 39/29/4 38/30/4 65/30/4 62/29/4
f 32/4/7 22/33/7 61/33/7 51/4/7
f 44/34/5 28/35/5 63/35/5 59/34/5
f 14/14/5 44/34/5 59/34/5 53/14/5
f 40/66/4 37/65/4 64/65/4 66/66/4
f 37/52/5 5/8/5 56/8/5 64/52/5
f 62/29/10 57/67/10 52/68/10 51/69/10
f 66/66/8 55/70/8 58/71/8 65/30/8
f 65/30/8 58/71/8 57/67/8 62/29/8
f 64/65/8 56/72/8 55/70/8 66/66/8
f 59/34/8 63/35/8 61/73/8 60/74/8
f 63/35/8 62/29/8 51/69/8 61/73/8
f 53/14/8 59/34/8 60/74/8 54/15/8
f 7/5/2 32/4/2 51/4/2 52/5/2
f 28/35/5 39/29/5 62/29/5 63/35/5
f 38/30/4 40/66/4 66/66/4 65/30/4
f 11/2/1 15/27/1 57/27/1 58/2/1
f 3/15/4 14/14/4 53/14/4 54/15/4
f 15/27/6 7/32/6 52/32/6 57/27/6
f 22/33/7 47/58/7 60/58/7 61/33/7
f 47/58/7 3/15/7 54/15/7 60/58/7
f 5/8/1 17/1/1 55/1/1 56/8/1
