# Blender 4.4.3
# www.blender.org
mtllib InsetWallCorner.mtl
o Cube.001
v 2.000000 0.983525 -2.000000
v 2.000000 -0.016475 -2.000000
v 2.000000 0.983525 2.000000
v 2.000000 -0.016475 2.000000
v -2.000000 0.983525 -2.000000
v -2.000000 -0.016475 -2.000000
v -2.000000 0.983525 2.000000
v -2.000000 -0.016475 2.000000
v 2.000000 0.983525 -0.000000
v -2.000000 0.983525 -0.000000
v -2.000000 -0.016475 0.000000
v 2.000000 -0.016475 0.000000
v 0.000000 0.983525 -2.000000
v 0.000000 0.983525 2.000000
v 0.000000 -0.016475 2.000000
v 0.000000 -0.016475 -2.000000
v 0.000000 -0.016475 0.000000
v 0.000000 0.983525 -0.000000
v -1.000000 0.983525 -2.000000
v -1.000000 0.983525 2.000000
v -1.000000 -0.016475 2.000000
v -1.000000 -0.016475 -2.000000
v -1.000000 -0.016475 0.000000
v -1.000000 0.983525 -0.000000
v 1.000000 0.983525 -0.000000
v 1.000000 0.983525 -2.000000
v 1.000000 0.983525 2.000000
v 1.000000 -0.016475 2.000000
v 1.000000 -0.016475 -2.000000
v 1.000000 -0.016475 0.000000
v 2.000000 0.983525 -1.000000
v -2.000000 0.983525 -1.000000
v -2.000000 -0.016475 -1.000000
v 2.000000 -0.016475 -1.000000
v 0.000000 0.983525 -1.000000
v 0.000000 -0.016475 -1.000000
v -1.000000 -0.016475 -1.000000
v -1.000000 0.983525 -1.000000
v 1.000000 0.983525 -1.000000
v 1.000000 -0.016475 -1.000000
v 2.000000 0.983525 1.000000
v -2.000000 0.983525 1.000000
v -2.000000 -0.016475 1.000000
v 2.000000 -0.016475 1.000000
v 0.000000 -0.016475 1.000000
v 0.000000 0.983525 1.000000
v -1.000000 -0.016475 1.000000
v -1.239035 0.960527 1.296871
v 1.000000 0.983525 1.000000
v 1.000000 -0.016475 1.000000
v -2.000000 5.245706 1.000000
v -2.000000 5.245706 2.000000
v -1.000000 5.245706 2.000000
v -1.239035 5.222708 1.296870
v -2.000000 5.469728 1.000000
v -2.000000 5.469728 2.000000
v -1.000000 5.469728 2.000000
v -1.239035 5.446730 1.296870
v -2.000000 5.704809 1.000000
v -2.000000 5.704809 2.000000
v -1.000000 5.704809 2.000000
v -1.239035 5.681811 1.296870
vn -0.3695 0.7414 -0.5602
vn -0.7071 -0.0000 0.7071
vn -0.5642 -0.0000 -0.8257
vn -0.0000 -0.0000 1.0000
vn -1.0000 -0.0000 -0.0000
vn -0.0000 -1.0000 -0.0000
vn 1.0000 -0.0000 -0.0000
vn -0.0000 -0.0000 -1.0000
vn -0.0000 1.0000 -0.0000
vn 0.0056 1.0000 0.0056
vn -0.0001 1.0000 0.0050
vn -0.0023 1.0000 0.0023
vn -0.0051 1.0000 0.0001
vn -0.0059 1.0000 -0.0059
vn 0.4111 0.8219 -0.3943
vn 0.5687 0.7225 0.3931
vn 0.8130 -0.0000 0.5823
vn 0.7226 -0.0000 -0.6913
vn -0.4653 0.5626 -0.6834
vn 0.5730 0.6092 -0.5482
vn 0.0157 0.9998 -0.0157
vn 0.6714 0.5648 0.4797
vt 0.625000 0.062500
vt 0.625000 0.000000
vt 0.375000 0.937500
vt 0.625000 0.937500
vt 0.625000 1.000000
vt 0.375000 1.000000
vt 0.375000 0.187500
vt 0.625000 0.187500
vt 0.625000 0.250000
vt 0.375000 0.250000
vt 0.312500 0.687500
vt 0.375000 0.687500
vt 0.375000 0.750000
vt 0.312500 0.750000
vt 0.625000 0.687500
vt 0.625000 0.750000
vt 0.375000 0.437500
vt 0.625000 0.437500
vt 0.625000 0.500000
vt 0.375000 0.500000
vt 0.375000 0.562500
vt 0.625000 0.562500
vt 0.625000 0.625000
vt 0.375000 0.625000
vt 0.312500 0.562500
vt 0.312500 0.625000
vt 0.375000 0.062500
vt 0.625000 0.125000
vt 0.375000 0.125000
vt 0.812500 0.562500
vt 0.875000 0.562500
vt 0.875000 0.625000
vt 0.812500 0.625000
vt 0.687500 0.562500
vt 0.750000 0.562500
vt 0.750000 0.625000
vt 0.687500 0.625000
vt 0.187500 0.562500
vt 0.250000 0.562500
vt 0.250000 0.625000
vt 0.187500 0.625000
vt 0.375000 0.312500
vt 0.625000 0.312500
vt 0.625000 0.375000
vt 0.375000 0.375000
vt 0.187500 0.687500
vt 0.250000 0.687500
vt 0.250000 0.750000
vt 0.187500 0.750000
vt 0.375000 0.812500
vt 0.625000 0.812500
vt 0.625000 0.875000
vt 0.375000 0.875000
vt 0.687500 0.687500
vt 0.750000 0.687500
vt 0.750000 0.750000
vt 0.687500 0.750000
vt 0.125000 0.687500
vt 0.125000 0.750000
vt 0.125000 0.562500
vt 0.125000 0.625000
vt 0.812500 0.687500
vt 0.812500 0.750000
vt 0.250000 0.500000
vt 0.312500 0.500000
vt 0.687500 0.500000
vt 0.750000 0.500000
vt 0.812500 0.500000
vt 0.125000 0.500000
vt 0.187500 0.500000
vt 0.875000 0.500000
vt 0.375000 0.000000
vt 0.875000 0.687500
vt 0.875000 0.750000
s 1
usemtl Material.002
f 21/3/4 20/4/4 7/5/4 8/6/4
f 33/7/5 32/8/5 5/9/5 6/10/5
f 50/11/6 44/12/6 4/13/6 28/14/6
f 44/12/7 41/15/7 3/16/7 4/13/7
f 29/17/8 26/18/8 1/19/8 2/20/8
f 34/21/7 31/22/7 9/23/7 12/24/7
f 40/25/6 34/21/6 12/24/6 30/26/6
f 43/27/5 42/1/5 10/28/5 11/29/5
f 38/30/9 32/31/9 10/32/10 24/33/11
f 39/34/9 35/35/9 18/36/12 25/37/9
f 37/38/6 36/39/6 17/40/6 23/41/6
f 22/42/8 19/43/8 13/44/8 16/45/8
f 47/46/6 45/47/6 15/48/6 21/49/6
f 28/50/4 27/51/4 14/52/4 15/53/4
f 49/54/9 46/55/13 14/56/14 27/57/9
f 43/58/6 47/46/6 21/49/6 8/59/6
f 6/10/8 5/9/8 19/43/8 22/42/8
f 33/60/6 37/38/6 23/41/6 11/61/6
f 35/35/9 38/30/9 24/33/11 18/36/12
f 15/53/4 14/52/4 20/4/4 21/3/4
f 46/55/13 48/62/15 20/63/16 14/56/14
f 41/15/9 49/54/9 27/57/9 3/16/9
f 4/13/4 3/16/4 27/51/4 28/50/4
f 31/22/9 39/34/9 25/37/9 9/23/9
f 36/39/6 40/25/6 30/26/6 17/40/6
f 16/45/8 13/44/8 26/18/8 29/17/8
f 45/47/6 50/11/6 28/14/6 15/48/6
f 16/64/6 29/65/6 40/25/6 36/39/6
f 1/19/9 26/66/9 39/34/9 31/22/9
f 13/67/9 19/68/9 38/30/9 35/35/9
f 6/69/6 22/70/6 37/38/6 33/60/6
f 22/70/6 16/64/6 36/39/6 37/38/6
f 26/66/9 13/67/9 35/35/9 39/34/9
f 19/68/9 5/71/9 32/31/9 38/30/9
f 29/65/6 2/20/6 34/21/6 40/25/6
f 2/20/7 1/19/7 31/22/7 34/21/7
f 11/29/5 10/28/5 32/8/5 33/7/5
f 17/40/6 30/26/6 50/11/6 45/47/6
f 9/23/9 25/37/9 49/54/9 41/15/9
f 18/36/12 24/33/11 48/62/15 46/55/13
f 11/61/6 23/41/6 47/46/6 43/58/6
f 25/37/9 18/36/12 46/55/13 49/54/9
f 23/41/6 17/40/6 45/47/6 47/46/6
f 8/72/5 7/2/5 42/1/5 43/27/5
f 12/24/7 9/23/7 41/15/7 44/12/7
f 30/26/6 12/24/6 44/12/6 50/11/6
f 24/33/11 10/32/10 42/73/1 48/62/15
usemtl wall.003
f 42/1/1 7/2/2 52/2/2 51/1/3
f 53/63/17 54/62/18 58/62/18 57/63/17
f 48/62/15 42/73/1 51/73/3 54/62/18
f 7/5/2 20/4/16 53/4/17 52/5/2
f 20/63/16 48/62/15 54/62/18 53/63/17
f 55/1/3 56/2/2 60/2/2 59/1/19
f 51/1/3 52/2/2 56/2/2 55/1/3
f 54/62/18 51/73/3 55/73/3 58/62/18
f 52/5/2 53/4/17 57/4/17 56/5/2
f 62/62/20 59/73/19 60/74/21 61/63/22
f 58/62/18 55/73/3 59/73/19 62/62/20
f 56/5/2 57/4/17 61/4/22 60/5/2
f 57/63/17 58/62/18 62/62/20 61/63/22
