# Blender 4.1.1
# www.blender.org
mtllib FenceCorner.mtl
o Cube
v -0.001405 1.000000 -0.001991
v -0.001405 0.000000 -0.001991
v -0.001405 1.000000 0.098009
v -0.001405 0.000000 0.098009
v -0.101405 1.000000 -0.001991
v -0.101405 0.000000 -0.001991
v -0.101405 1.000000 0.098009
v -0.101405 0.000000 0.098009
v 0.550000 1.000000 0.003597
v 0.550000 0.000000 0.003597
v 0.550000 1.000000 0.103597
v 0.550000 0.000000 0.103597
v 0.450000 1.000000 0.003597
v 0.450000 0.000000 0.003597
v 0.450000 1.000000 0.103597
v 0.450000 0.000000 0.103597
v -0.000679 1.000000 -0.550000
v -0.000679 0.000000 -0.550000
v -0.000679 1.000000 -0.450000
v -0.000679 0.000000 -0.450000
v -0.100679 1.000000 -0.550000
v -0.100679 0.000000 -0.550000
v -0.100679 1.000000 -0.450000
v -0.100679 0.000000 -0.450000
v 0.493231 0.431390 -0.044777
v -0.006769 0.431390 -0.044777
v 0.493231 0.431390 0.055223
v -0.006769 0.431390 0.055223
v 0.493231 0.531390 -0.044777
v -0.006769 0.531390 -0.044777
v 0.493231 0.531390 0.055223
v -0.006769 0.531390 0.055223
v 0.494142 0.135818 -0.051403
v -0.005858 0.135818 -0.051403
v 0.494142 0.135818 0.048597
v -0.005858 0.135818 0.048597
v 0.494142 0.235818 -0.051403
v -0.005858 0.235818 -0.051403
v 0.494142 0.235818 0.048597
v -0.005858 0.235818 0.048597
v 0.497418 0.705395 -0.046635
v -0.002582 0.705395 -0.046635
v 0.497418 0.705395 0.053365
v -0.002582 0.705395 0.053365
v 0.497418 0.805395 -0.046635
v -0.002582 0.805395 -0.046635
v 0.497418 0.805395 0.053365
v -0.002582 0.805395 0.053365
v -0.061691 0.705395 -0.500559
v -0.067242 0.705395 -0.000589
v 0.038303 0.705395 -0.499448
v 0.032752 0.705395 0.000521
v -0.061691 0.805395 -0.500559
v -0.067242 0.805395 -0.000589
v 0.038303 0.805395 -0.499448
v 0.032752 0.805395 0.000521
v -0.055372 0.431390 -0.497817
v -0.060923 0.431390 0.002153
v 0.044622 0.431390 -0.496706
v 0.039071 0.431390 0.003263
v -0.055372 0.531390 -0.497817
v -0.060923 0.531390 0.002153
v 0.044622 0.531390 -0.496706
v 0.039071 0.531390 0.003263
v -0.059323 0.135818 -0.495216
v -0.064874 0.135818 0.004753
v 0.040671 0.135818 -0.494106
v 0.035120 0.135818 0.005863
v -0.059323 0.235818 -0.495216
v -0.064874 0.235818 0.004753
v 0.040671 0.235818 -0.494106
v 0.035120 0.235818 0.005863
v 0.330391 1.000000 -0.005744
v 0.330391 0.000000 -0.005744
v 0.330391 1.000000 0.094256
v 0.330391 0.000000 0.094256
v 0.130391 1.000000 -0.005744
v 0.130391 0.000000 -0.005744
v 0.130391 1.000000 0.094256
v 0.130391 0.000000 0.094256
v 0.330391 0.999952 0.094256
v 0.130391 0.999952 0.094256
v 0.330391 0.999952 -0.005744
v 0.130391 0.999952 -0.005744
v 0.230391 0.000000 -0.005744
v 0.230391 1.000000 0.094256
v 0.230391 0.000000 0.094256
v 0.230391 1.000000 -0.005744
v 0.230391 1.050510 0.094256
v 0.230391 1.050510 -0.005744
v -0.105856 1.000000 -0.329542
v -0.105856 0.000000 -0.329542
v -0.005856 1.000000 -0.329542
v -0.005856 0.000000 -0.329542
v -0.105856 1.000000 -0.129542
v -0.105856 0.000000 -0.129542
v -0.005856 1.000000 -0.129542
v -0.005856 0.000000 -0.129542
v -0.005856 0.999952 -0.329542
v -0.005856 0.999952 -0.129542
v -0.105856 0.999952 -0.329542
v -0.105856 0.999952 -0.129542
v -0.105856 0.000000 -0.229542
v -0.005856 1.000000 -0.229542
v -0.005856 0.000000 -0.229542
v -0.105856 1.000000 -0.229542
v -0.005856 1.050510 -0.229542
v -0.105856 1.050510 -0.229542
vn -0.0000 1.0000 -0.0000
vn -0.0000 -0.0000 1.0000
vn -1.0000 -0.0000 -0.0000
vn -0.0000 -1.0000 -0.0000
vn 1.0000 -0.0000 -0.0000
vn -0.0000 -0.0000 -1.0000
vn 0.0111 -0.0000 -0.9999
vn 0.9999 -0.0000 0.0111
vn -0.0111 -0.0000 0.9999
vn -0.9999 -0.0000 -0.0111
vn -0.4512 0.8924 -0.0000
vn 0.4512 0.8924 -0.0000
vn -0.0000 0.8924 0.4512
vn -0.0000 0.8924 -0.4512
vt 0.625000 0.500000
vt 0.875000 0.500000
vt 0.875000 0.750000
vt 0.625000 0.750000
vt 0.375000 0.750000
vt 0.625000 1.000000
vt 0.375000 1.000000
vt 0.375000 0.000000
vt 0.625000 0.000000
vt 0.625000 0.250000
vt 0.375000 0.250000
vt 0.125000 0.500000
vt 0.375000 0.500000
vt 0.125000 0.750000
vt 0.625000 0.875000
vt 0.375000 0.875000
vt 0.250000 0.500000
vt 0.250000 0.750000
vt 0.375000 0.375000
vt 0.625000 0.375000
vt 0.750000 0.500000
vt 0.750000 0.750000
s 0
usemtl Material
f 1/1/1 5/2/1 7/3/1 3/4/1
f 4/5/2 3/4/2 7/6/2 8/7/2
f 8/8/3 7/9/3 5/10/3 6/11/3
f 6/12/4 2/13/4 4/5/4 8/14/4
f 2/13/5 1/1/5 3/4/5 4/5/5
f 6/11/6 5/10/6 1/1/6 2/13/6
usemtl Material.013
f 9/1/1 13/2/1 15/3/1 11/4/1
f 12/5/2 11/4/2 15/6/2 16/7/2
f 16/8/3 15/9/3 13/10/3 14/11/3
f 14/12/4 10/13/4 12/5/4 16/14/4
f 10/13/5 9/1/5 11/4/5 12/5/5
f 14/11/6 13/10/6 9/1/6 10/13/6
usemtl Material.014
f 17/1/1 21/2/1 23/3/1 19/4/1
f 20/5/2 19/4/2 23/6/2 24/7/2
f 24/8/3 23/9/3 21/10/3 22/11/3
f 22/12/4 18/13/4 20/5/4 24/14/4
f 18/13/5 17/1/5 19/4/5 20/5/5
f 22/11/6 21/10/6 17/1/6 18/13/6
usemtl Material.020
f 25/1/5 29/2/5 31/3/5 27/4/5
f 28/5/2 27/4/2 31/6/2 32/7/2
f 32/8/1 31/9/1 29/10/1 30/11/1
f 30/12/3 26/13/3 28/5/3 32/14/3
f 26/13/4 25/1/4 27/4/4 28/5/4
f 30/11/6 29/10/6 25/1/6 26/13/6
f 33/1/5 37/2/5 39/3/5 35/4/5
f 36/5/2 35/4/2 39/6/2 40/7/2
f 40/8/1 39/9/1 37/10/1 38/11/1
f 38/12/3 34/13/3 36/5/3 40/14/3
f 34/13/4 33/1/4 35/4/4 36/5/4
f 38/11/6 37/10/6 33/1/6 34/13/6
f 41/1/5 45/2/5 47/3/5 43/4/5
f 44/5/2 43/4/2 47/6/2 48/7/2
f 48/8/1 47/9/1 45/10/1 46/11/1
f 46/12/3 42/13/3 44/5/3 48/14/3
f 42/13/4 41/1/4 43/4/4 44/5/4
f 46/11/6 45/10/6 41/1/6 42/13/6
f 49/1/7 53/2/7 55/3/7 51/4/7
f 52/5/8 51/4/8 55/6/8 56/7/8
f 56/8/1 55/9/1 53/10/1 54/11/1
f 54/12/9 50/13/9 52/5/9 56/14/9
f 50/13/4 49/1/4 51/4/4 52/5/4
f 54/11/10 53/10/10 49/1/10 50/13/10
f 57/1/7 61/2/7 63/3/7 59/4/7
f 60/5/8 59/4/8 63/6/8 64/7/8
f 64/8/1 63/9/1 61/10/1 62/11/1
f 62/12/9 58/13/9 60/5/9 64/14/9
f 58/13/4 57/1/4 59/4/4 60/5/4
f 62/11/10 61/10/10 57/1/10 58/13/10
f 65/1/7 69/2/7 71/3/7 67/4/7
f 68/5/8 67/4/8 71/6/8 72/7/8
f 72/8/1 71/9/1 69/10/1 70/11/1
f 70/12/9 66/13/9 68/5/9 72/14/9
f 66/13/4 65/1/4 67/4/4 68/5/4
f 70/11/10 69/10/10 65/1/10 66/13/10
usemtl Material.021
f 86/15/2 75/4/2 81/4/2 89/15/2
f 87/16/2 86/15/2 79/6/2 80/7/2
f 80/8/3 79/9/3 77/10/3 78/11/3
f 85/17/4 74/13/4 76/5/4 87/18/4
f 74/13/5 73/1/5 75/4/5 76/5/5
f 85/19/6 88/20/6 73/1/6 74/13/6
f 90/21/11 84/2/11 82/3/11 89/22/11
f 77/10/5 79/9/5 82/9/5 84/10/5
f 75/4/3 73/1/3 83/1/3 81/4/3
f 88/20/6 77/10/6 84/10/6 90/20/6
f 73/1/6 88/20/6 90/20/6 83/1/6
f 83/1/12 90/21/12 89/22/12 81/4/12
f 78/11/6 77/10/6 88/20/6 85/19/6
f 78/12/4 85/17/4 87/18/4 80/14/4
f 76/5/2 75/4/2 86/15/2 87/16/2
f 79/6/2 86/15/2 89/15/2 82/6/2
usemtl Material.022
f 104/15/5 93/4/5 99/4/5 107/15/5
f 105/16/5 104/15/5 97/6/5 98/7/5
f 98/8/2 97/9/2 95/10/2 96/11/2
f 103/17/4 92/13/4 94/5/4 105/18/4
f 92/13/6 91/1/6 93/4/6 94/5/6
f 103/19/3 106/20/3 91/1/3 92/13/3
f 108/21/13 102/2/13 100/3/13 107/22/13
f 95/10/6 97/9/6 100/9/6 102/10/6
f 93/4/2 91/1/2 101/1/2 99/4/2
f 106/20/3 95/10/3 102/10/3 108/20/3
f 91/1/3 106/20/3 108/20/3 101/1/3
f 101/1/14 108/21/14 107/22/14 99/4/14
f 96/11/3 95/10/3 106/20/3 103/19/3
f 96/12/4 103/17/4 105/18/4 98/14/4
f 94/5/5 93/4/5 104/15/5 105/16/5
f 97/6/5 104/15/5 107/15/5 100/6/5
