# Blender 4.1.1
# www.blender.org
mtllib Fence.mtl
o Cube.005
v -0.500000 0.430926 0.050000
v -0.500000 0.530926 0.050000
v -0.500000 0.430926 -0.050000
v -0.500000 0.530926 -0.050000
v 0.500000 0.430926 0.050000
v 0.500000 0.530926 0.050000
v 0.500000 0.430926 -0.050000
v 0.500000 0.530926 -0.050000
v 0.150000 -0.013997 0.100000
v 0.150000 0.986003 0.100000
v 0.150000 -0.013997 -0.000000
v 0.150000 0.986003 -0.000000
v 0.350000 -0.013997 0.100000
v 0.350000 0.986003 0.100000
v 0.350000 -0.013997 -0.000000
v 0.350000 0.986003 -0.000000
v 0.150000 0.989795 0.100000
v 0.150000 0.989795 -0.000000
v 0.350000 0.989795 -0.000000
v 0.350000 0.989795 0.100000
v 0.250000 -0.013997 -0.000000
v 0.250000 0.986003 -0.000000
v 0.250000 -0.013997 0.100000
v 0.250000 0.986003 0.100000
v 0.250000 1.049121 -0.000000
v 0.250000 1.049121 0.100000
v -0.350000 -0.013997 0.100000
v -0.350000 0.986003 0.100000
v -0.350000 -0.013997 -0.000000
v -0.350000 0.986003 -0.000000
v -0.150000 -0.013997 0.100000
v -0.150000 0.986003 0.100000
v -0.150000 -0.013997 -0.000000
v -0.150000 0.986003 -0.000000
v -0.350000 0.989795 0.100000
v -0.350000 0.989795 -0.000000
v -0.150000 0.989795 -0.000000
v -0.150000 0.989795 0.100000
v -0.250000 -0.013997 -0.000000
v -0.250000 0.986003 -0.000000
v -0.250000 -0.013997 0.100000
v -0.250000 0.986003 0.100000
v -0.250000 1.049121 -0.000000
v -0.250000 1.049121 0.100000
v -0.100000 -0.013997 0.100000
v -0.100000 0.986003 0.100000
v -0.100000 -0.013997 -0.000000
v -0.100000 0.986003 -0.000000
v 0.100000 -0.013997 0.100000
v 0.100000 0.986003 0.100000
v 0.100000 -0.013997 -0.000000
v 0.100000 0.986003 -0.000000
v -0.100000 0.989795 0.100000
v -0.100000 0.989795 -0.000000
v 0.100000 0.989795 -0.000000
v 0.100000 0.989795 0.100000
v 0.000000 -0.013997 -0.000000
v 0.000000 0.986003 -0.000000
v 0.000000 -0.013997 0.100000
v 0.000000 0.986003 0.100000
v 0.000000 1.049121 -0.000000
v 0.000000 1.049121 0.100000
v 0.150000 -0.013997 0.100000
v 0.150000 0.986003 0.100000
v 0.150000 -0.013997 -0.000000
v 0.150000 0.986003 -0.000000
v 0.350000 -0.013997 0.100000
v 0.350000 0.986003 0.100000
v 0.350000 -0.013997 -0.000000
v 0.350000 0.986003 -0.000000
v 0.150000 0.989795 0.100000
v 0.150000 0.989795 -0.000000
v 0.350000 0.989795 -0.000000
v 0.350000 0.989795 0.100000
v 0.250000 -0.013997 -0.000000
v 0.250000 0.986003 -0.000000
v 0.250000 -0.013997 0.100000
v 0.250000 0.986003 0.100000
v 0.250000 1.049121 -0.000000
v 0.250000 1.049121 0.100000
v -0.500000 0.134840 0.050000
v -0.500000 0.234840 0.050000
v -0.500000 0.134840 -0.050000
v -0.500000 0.234840 -0.050000
v 0.500000 0.134840 0.050000
v 0.500000 0.234840 0.050000
v 0.500000 0.134840 -0.050000
v 0.500000 0.234840 -0.050000
v -0.500000 0.703841 0.050000
v -0.500000 0.803841 0.050000
v -0.500000 0.703841 -0.050000
v -0.500000 0.803841 -0.050000
v 0.500000 0.703841 0.050000
v 0.500000 0.803841 0.050000
v 0.500000 0.703841 -0.050000
v 0.500000 0.803841 -0.050000
v -0.525148 0.980524 0.101908
v -0.425148 0.980524 0.101908
v -0.525148 0.980524 0.001908
v -0.425148 0.980524 0.001908
v -0.525148 -0.019476 0.101908
v -0.425148 -0.019476 0.101908
v -0.525148 -0.019476 0.001908
v -0.425148 -0.019476 0.001908
v 0.405671 0.980524 0.101908
v 0.505671 0.980524 0.101908
v 0.405671 0.980524 0.001908
v 0.505671 0.980524 0.001908
v 0.405671 -0.019476 0.101908
v 0.505670 -0.019476 0.101908
v 0.405671 -0.019476 0.001908
v 0.505670 -0.019476 0.001908
vn -1.0000 -0.0000 -0.0000
vn -0.0000 -0.0000 -1.0000
vn 1.0000 -0.0000 -0.0000
vn -0.0000 -0.0000 1.0000
vn -0.0000 -1.0000 -0.0000
vn -0.0000 1.0000 -0.0000
vn -0.5102 0.8600 -0.0000
vn 0.5102 0.8600 -0.0000
vt 0.375000 0.000000
vt 0.625000 0.000000
vt 0.625000 0.250000
vt 0.375000 0.250000
vt 0.625000 0.500000
vt 0.375000 0.500000
vt 0.625000 0.750000
vt 0.375000 0.750000
vt 0.625000 1.000000
vt 0.375000 1.000000
vt 0.125000 0.500000
vt 0.125000 0.750000
vt 0.875000 0.500000
vt 0.875000 0.750000
vt 0.375000 0.375000
vt 0.625000 0.375000
vt 0.375000 0.875000
vt 0.625000 0.875000
vt 0.250000 0.500000
vt 0.250000 0.750000
vt 0.750000 0.500000
vt 0.750000 0.750000
s 0
usemtl Material.001
f 1/1/1 2/2/1 4/3/1 3/4/1
f 3/4/2 4/3/2 8/5/2 7/6/2
f 7/6/3 8/5/3 6/7/3 5/8/3
f 5/8/4 6/7/4 2/9/4 1/10/4
f 3/11/5 7/6/5 5/8/5 1/12/5
f 8/5/6 4/13/6 2/14/6 6/7/6
f 9/1/1 10/2/1 12/3/1 11/4/1
f 21/15/2 22/16/2 16/5/2 15/6/2
f 15/6/3 16/5/3 14/7/3 13/8/3
f 23/17/4 24/18/4 10/9/4 9/10/4
f 21/19/5 15/6/5 13/8/5 23/20/5
f 12/3/1 10/2/1 17/2/1 18/3/1
f 25/21/7 18/13/7 17/14/7 26/22/7
f 24/18/4 14/7/4 20/7/4 26/18/4
f 22/16/2 12/3/2 18/3/2 25/16/2
f 14/7/3 16/5/3 19/5/3 20/7/3
f 16/5/2 22/16/2 25/16/2 19/5/2
f 10/9/4 24/18/4 26/18/4 17/9/4
f 19/5/8 25/21/8 26/22/8 20/7/8
f 11/11/5 21/19/5 23/20/5 9/12/5
f 13/8/4 14/7/4 24/18/4 23/17/4
f 11/4/2 12/3/2 22/16/2 21/15/2
usemtl Material.004
f 27/1/1 28/2/1 30/3/1 29/4/1
f 39/15/2 40/16/2 34/5/2 33/6/2
f 33/6/3 34/5/3 32/7/3 31/8/3
f 41/17/4 42/18/4 28/9/4 27/10/4
f 39/19/5 33/6/5 31/8/5 41/20/5
f 30/3/1 28/2/1 35/2/1 36/3/1
f 43/21/7 36/13/7 35/14/7 44/22/7
f 42/18/4 32/7/4 38/7/4 44/18/4
f 40/16/2 30/3/2 36/3/2 43/16/2
f 32/7/3 34/5/3 37/5/3 38/7/3
f 34/5/2 40/16/2 43/16/2 37/5/2
f 28/9/4 42/18/4 44/18/4 35/9/4
f 37/5/8 43/21/8 44/22/8 38/7/8
f 29/11/5 39/19/5 41/20/5 27/12/5
f 31/8/4 32/7/4 42/18/4 41/17/4
f 29/4/2 30/3/2 40/16/2 39/15/2
f 45/1/1 46/2/1 48/3/1 47/4/1
f 57/15/2 58/16/2 52/5/2 51/6/2
f 51/6/3 52/5/3 50/7/3 49/8/3
f 59/17/4 60/18/4 46/9/4 45/10/4
f 57/19/5 51/6/5 49/8/5 59/20/5
f 48/3/1 46/2/1 53/2/1 54/3/1
f 61/21/7 54/13/7 53/14/7 62/22/7
f 60/18/4 50/7/4 56/7/4 62/18/4
f 58/16/2 48/3/2 54/3/2 61/16/2
f 50/7/3 52/5/3 55/5/3 56/7/3
f 52/5/2 58/16/2 61/16/2 55/5/2
f 46/9/4 60/18/4 62/18/4 53/9/4
f 55/5/8 61/21/8 62/22/8 56/7/8
f 47/11/5 57/19/5 59/20/5 45/12/5
f 49/8/4 50/7/4 60/18/4 59/17/4
f 47/4/2 48/3/2 58/16/2 57/15/2
usemtl Material.005
f 63/1/1 64/2/1 66/3/1 65/4/1
f 75/15/2 76/16/2 70/5/2 69/6/2
f 69/6/3 70/5/3 68/7/3 67/8/3
f 77/17/4 78/18/4 64/9/4 63/10/4
f 75/19/5 69/6/5 67/8/5 77/20/5
f 66/3/1 64/2/1 71/2/1 72/3/1
f 79/21/7 72/13/7 71/14/7 80/22/7
f 78/18/4 68/7/4 74/7/4 80/18/4
f 76/16/2 66/3/2 72/3/2 79/16/2
f 68/7/3 70/5/3 73/5/3 74/7/3
f 70/5/2 76/16/2 79/16/2 73/5/2
f 64/9/4 78/18/4 80/18/4 71/9/4
f 73/5/8 79/21/8 80/22/8 74/7/8
f 65/11/5 75/19/5 77/20/5 63/12/5
f 67/8/4 68/7/4 78/18/4 77/17/4
f 65/4/2 66/3/2 76/16/2 75/15/2
usemtl Material.003
f 81/1/1 82/2/1 84/3/1 83/4/1
f 83/4/2 84/3/2 88/5/2 87/6/2
f 87/6/3 88/5/3 86/7/3 85/8/3
f 85/8/4 86/7/4 82/9/4 81/10/4
f 83/11/5 87/6/5 85/8/5 81/12/5
f 88/5/6 84/13/6 82/14/6 86/7/6
usemtl Material.002
f 89/1/1 90/2/1 92/3/1 91/4/1
f 91/4/2 92/3/2 96/5/2 95/6/2
f 95/6/3 96/5/3 94/7/3 93/8/3
f 93/8/4 94/7/4 90/9/4 89/10/4
f 91/11/5 95/6/5 93/8/5 89/12/5
f 96/5/6 92/13/6 90/14/6 94/7/6
f 97/1/6 98/2/6 100/3/6 99/4/6
f 99/4/2 100/3/2 104/5/2 103/6/2
f 103/6/5 104/5/5 102/7/5 101/8/5
f 101/8/4 102/7/4 98/9/4 97/10/4
f 99/11/1 103/6/1 101/8/1 97/12/1
f 104/5/3 100/13/3 98/14/3 102/7/3
f 105/1/6 106/2/6 108/3/6 107/4/6
f 107/4/2 108/3/2 112/5/2 111/6/2
f 111/6/5 112/5/5 110/7/5 109/8/5
f 109/8/4 110/7/4 106/9/4 105/10/4
f 107/11/1 111/6/1 109/8/1 105/12/1
f 112/5/3 108/13/3 106/14/3 110/7/3
